<svg width="40" height="40" viewBox="0 0 40 40" fill="none" xmlns="http://www.w3.org/2000/svg">
<path d="M24.1159 33.3841L11.6159 20.8841C11.4997 20.768 11.4075 20.6301 11.3446 20.4784C11.2817 20.3266 11.2493 20.164 11.2493 19.9997C11.2493 19.8354 11.2817 19.6728 11.3446 19.521C11.4075 19.3693 11.4997 19.2314 11.6159 19.1153L24.1159 6.61534C24.3505 6.38079 24.6686 6.24902 25.0003 6.24902C25.332 6.24902 25.6501 6.38079 25.8847 6.61534C26.1192 6.84989 26.251 7.16801 26.251 7.49972C26.251 7.83142 26.1192 8.14954 25.8847 8.38409L14.2675 19.9997L25.8847 31.6153C26.0008 31.7315 26.0929 31.8694 26.1558 32.0211C26.2186 32.1728 26.251 32.3355 26.251 32.4997C26.251 32.664 26.2186 32.8266 26.1558 32.9783C26.0929 33.1301 26.0008 33.268 25.8847 33.3841C25.7685 33.5002 25.6306 33.5924 25.4789 33.6552C25.3272 33.7181 25.1645 33.7504 25.0003 33.7504C24.836 33.7504 24.6734 33.7181 24.5217 33.6552C24.3699 33.5924 24.232 33.5002 24.1159 33.3841Z" fill="#2D2B2E"/>
</svg>
