<svg width="26" height="26" viewBox="0 0 26 26" fill="none" xmlns="http://www.w3.org/2000/svg">
<path d="M13 8.9375C12.1965 8.9375 11.4111 9.17576 10.743 9.62216C10.0749 10.0685 9.55422 10.703 9.24674 11.4453C8.93926 12.1877 8.85881 13.0045 9.01556 13.7926C9.17231 14.5806 9.55923 15.3045 10.1274 15.8726C10.6955 16.4408 11.4194 16.8277 12.2074 16.9844C12.9955 17.1412 13.8123 17.0607 14.5547 16.7533C15.297 16.4458 15.9315 15.9251 16.3778 15.257C16.8242 14.5889 17.0625 13.8035 17.0625 13C17.0625 11.9226 16.6345 10.8892 15.8726 10.1274C15.1108 9.36551 14.0774 8.9375 13 8.9375ZM13 15.4375C12.5179 15.4375 12.0466 15.2945 11.6458 15.0267C11.245 14.7589 10.9325 14.3782 10.748 13.9328C10.5636 13.4874 10.5153 12.9973 10.6093 12.5245C10.7034 12.0516 10.9355 11.6173 11.2764 11.2764C11.6173 10.9355 12.0516 10.7034 12.5245 10.6093C12.9973 10.5153 13.4874 10.5636 13.9328 10.748C14.3782 10.9325 14.7589 11.245 15.0267 11.6458C15.2945 12.0466 15.4375 12.5179 15.4375 13C15.4375 13.6465 15.1807 14.2665 14.7236 14.7236C14.2665 15.1807 13.6465 15.4375 13 15.4375ZM24.375 5.6875H1.625C1.40951 5.6875 1.20285 5.7731 1.05048 5.92548C0.898102 6.07785 0.8125 6.28451 0.8125 6.5V19.5C0.8125 19.7155 0.898102 19.9222 1.05048 20.0745C1.20285 20.2269 1.40951 20.3125 1.625 20.3125H24.375C24.5905 20.3125 24.7972 20.2269 24.9495 20.0745C25.1019 19.9222 25.1875 19.7155 25.1875 19.5V6.5C25.1875 6.28451 25.1019 6.07785 24.9495 5.92548C24.7972 5.7731 24.5905 5.6875 24.375 5.6875ZM19.6676 18.6875H6.33242C6.05963 17.7649 5.56035 16.9252 4.88006 16.2449C4.19977 15.5646 3.36009 15.0654 2.4375 14.7926V11.2074C3.36009 10.9346 4.19977 10.4354 4.88006 9.75506C5.56035 9.07477 6.05963 8.23509 6.33242 7.3125H19.6676C19.9404 8.23509 20.4396 9.07477 21.1199 9.75506C21.8002 10.4354 22.6399 10.9346 23.5625 11.2074V14.7926C22.6399 15.0654 21.8002 15.5646 21.1199 16.2449C20.4396 16.9252 19.9404 17.7649 19.6676 18.6875ZM23.5625 9.48289C22.5879 9.06384 21.8112 8.28706 21.3921 7.3125H23.5625V9.48289ZM4.60789 7.3125C4.18884 8.28706 3.41206 9.06384 2.4375 9.48289V7.3125H4.60789ZM2.4375 16.5171C3.41206 16.9362 4.18884 17.7129 4.60789 18.6875H2.4375V16.5171ZM21.3921 18.6875C21.8112 17.7129 22.5879 16.9362 23.5625 16.5171V18.6875H21.3921Z" fill="#2D2B2E"/>
</svg>
